<?xml version="1.0" encoding="UTF-8" standalone="no"?>
<!DOCTYPE svg PUBLIC "-//W3C//DTD SVG 1.1//EN" "http://www.w3.org/Graphics/SVG/1.1/DTD/svg11.dtd">
<svg width="100%" height="100%" viewBox="0 0 1000 1000" version="1.1" xmlns="http://www.w3.org/2000/svg" xmlns:xlink="http://www.w3.org/1999/xlink" xml:space="preserve" xmlns:serif="http://www.serif.com/" style="fill-rule:evenodd;clip-rule:evenodd;stroke-linejoin:round;stroke-miterlimit:2;">
    <g transform="matrix(1.25063,-2.73691e-48,-1.36846e-48,1.31169,-106.104,-86.7867)">
        <path d="M210.902,440.509L324.074,505.85L324.074,313.365L210.902,248.024L210.902,440.509ZM658.312,592.619L658.312,461.947L491.614,558.184L491.614,688.861L658.312,592.619ZM566.213,130.79L453.041,196.136L619.739,292.378L732.906,227.042L566.213,130.79ZM590.839,309.062L261.3,118.806L148.128,184.147L477.667,374.409L590.839,309.062ZM491.614,524.818L821.148,334.561L821.148,203.88L491.614,394.142L491.614,524.818ZM352.968,330.048L352.968,710.561L466.145,775.897L466.145,395.384L352.968,330.048Z" style="fill:url(#_Linear1);fill-rule:nonzero;"/>
    </g>
    <defs>
        <linearGradient id="_Linear1" x1="0" y1="0" x2="1" y2="0" gradientUnits="userSpaceOnUse" gradientTransform="matrix(4.02353e-14,657.092,-657.092,4.02353e-14,484.638,118.806)"><stop offset="0" style="stop-color:rgb(77,201,242);stop-opacity:1"/><stop offset="1" style="stop-color:rgb(14,140,183);stop-opacity:1"/></linearGradient>
    </defs>
</svg>
